<?xml version="1.0" standalone="no"?>
<!DOCTYPE svg PUBLIC "-//W3C//DTD SVG 20010904//EN"
 "http://www.w3.org/TR/2001/REC-SVG-20010904/DTD/svg10.dtd">
<svg version="1.0" xmlns="http://www.w3.org/2000/svg"
 width="1024.000000pt" height="1024.000000pt" viewBox="0 0 1024.000000 1024.000000"
 preserveAspectRatio="xMidYMid meet">
<metadata>
Created by potrace 1.14, written by Peter Selinger 2001-2017
</metadata>
<g transform="translate(0.000000,1024.000000) scale(0.100000,-0.100000)"
fill="#000000" stroke="none">
<path d="M3360 9469 c-41 -3 -88 -10 -105 -14 -87 -23 -181 -94 -238 -180 -27
-42 -53 -126 -62 -205 -3 -25 -8 -56 -10 -70 -3 -14 -7 -47 -11 -75 -3 -27 -7
-61 -9 -75 -2 -14 -6 -45 -10 -70 -3 -25 -10 -76 -15 -115 -5 -38 -12 -90 -15
-115 -5 -45 -13 -102 -20 -150 -2 -14 -7 -47 -10 -75 -3 -27 -8 -61 -10 -75
-3 -14 -7 -45 -10 -70 -11 -89 -36 -286 -41 -315 -6 -34 -9 -62 -19 -155 -4
-36 -9 -67 -10 -70 -2 -3 -6 -33 -10 -65 -3 -33 -8 -67 -10 -75 -2 -8 -7 -42
-10 -75 -3 -33 -8 -69 -10 -80 -2 -11 -7 -42 -10 -70 -3 -27 -10 -79 -15 -115
-6 -36 -12 -87 -15 -114 -3 -27 -8 -59 -10 -70 -3 -12 -7 -43 -10 -71 -3 -27
-11 -97 -19 -155 -8 -58 -18 -125 -21 -150 -3 -25 -15 -112 -25 -195 -11 -82
-22 -168 -25 -190 -3 -22 -8 -51 -10 -65 -2 -14 -7 -50 -10 -80 -4 -30 -8 -66
-10 -80 -6 -37 -14 -100 -20 -144 -5 -45 -13 -105 -21 -161 -3 -22 -7 -51 -9
-65 -2 -14 -6 -43 -9 -65 -3 -22 -8 -60 -11 -85 -3 -25 -8 -61 -11 -80 -3 -19
-7 -51 -9 -70 -11 -85 -16 -126 -19 -145 -5 -27 -20 -166 -20 -185 0 -47 18
-128 39 -176 50 -113 184 -216 300 -231 28 -4 509 -7 1071 -7 l1021 -1 -9 -35
c-11 -45 -29 -127 -33 -148 -2 -9 -4 -18 -5 -19 -3 -3 -2 -2 -15 -58 -5 -22
-9 -42 -10 -45 -6 -23 -48 -199 -50 -211 -2 -9 -15 -65 -30 -125 -14 -60 -28
-116 -30 -125 -2 -9 -36 -151 -75 -315 -39 -164 -73 -308 -76 -319 -2 -11 -6
-29 -9 -40 -2 -11 -18 -76 -34 -145 -16 -69 -37 -156 -46 -195 -9 -38 -19 -78
-21 -88 -2 -9 -6 -26 -9 -37 -6 -23 -5 -19 -40 -170 -15 -63 -28 -122 -30
-130 -2 -8 -22 -89 -44 -180 -22 -91 -42 -176 -45 -190 -3 -14 -44 -187 -91
-385 -90 -377 -102 -457 -81 -549 14 -58 63 -143 107 -186 31 -29 77 -62 82
-58 2 2 11 -3 20 -10 41 -34 201 -51 285 -31 20 5 44 11 53 14 21 4 91 48 124
77 29 25 97 125 154 228 23 41 73 129 112 194 38 66 69 120 69 121 0 2 31 54
68 116 37 63 71 121 75 129 4 8 18 33 31 55 83 144 212 365 226 390 50 88 136
235 156 267 13 21 24 39 24 41 0 3 141 250 170 297 18 30 205 352 226 388 84
152 259 450 272 465 8 9 12 17 8 17 -4 0 1 12 11 28 31 47 43 66 50 82 3 8 14
26 23 40 10 14 28 45 42 70 25 44 69 122 118 205 14 23 47 80 73 126 26 46 52
91 57 99 35 53 250 434 250 441 0 5 5 9 10 9 6 0 10 4 10 10 0 5 18 39 40 75
22 36 40 67 40 70 0 2 13 25 29 52 53 87 201 344 201 348 0 2 13 24 30 48 16
25 30 48 30 51 0 4 16 32 35 62 19 30 35 56 35 59 0 2 20 39 45 81 25 41 45
80 45 85 0 5 5 9 10 9 6 0 10 4 10 8 0 5 54 103 121 218 214 369 220 383 221
485 2 110 -38 201 -132 299 -52 54 -113 87 -201 106 -13 3 -477 6 -1031 6
-991 1 -1007 1 -997 20 6 11 12 27 14 37 2 10 26 87 53 172 28 85 92 282 142
439 51 157 109 339 131 405 21 66 38 122 37 125 -1 3 4 15 11 28 7 13 14 31
16 41 2 9 28 93 58 187 108 330 139 429 142 446 2 10 7 23 10 28 9 15 94 286
101 323 38 194 -110 417 -302 457 -47 9 -338 13 -1270 14 -665 0 -1243 -2
-1284 -5z"/>
</g>
</svg>
